{
	"images":[{
		"uri":"data:image/jpeg;base64,"
	}],
	"asset":{
		"version":"2.0",
		"generator":""
	},
	"scenes":[{
		"nodes":[0]
	}],
	"nodes":[{
		"name":"Default",
		"mesh":0
	}],
	"meshes":[{
		"name":"Default",
		"primitives":[{
			"attributes":{
				"NORMAL":2,
				"POSITION":1,
				"TEXCOORD_0":3
			},
			"indices":0,
			"material":0
		}]
	}],
	"accessors":[{
		"bufferView":0,
		"type":"SCALAR",
		"componentType":5123,
		"count":74994,
		"byteOffset":0,
		"min":[0],
		"max":[18292]
	},
	{
		"bufferView":1,
		"type":"VEC3",
		"componentType":5126,
		"count":18293,
		"byteOffset":0,
		"min":[-0.003126370022073388,
		0.0,
		-0.004343369975686073],
		"max":[0.003150129923596978,
		0.007256379816681147,
		0.004401970189064741]
	},
	{
		"bufferView":1,
		"type":"VEC3",
		"componentType":5126,
		"count":18293,
		"byteOffset":12,
		"min":[-0.9999373555183411,
		-0.9994903206825256,
		-0.9999703168869019],
		"max":[0.999721109867096,
		0.9999791383743286,
		0.9997680187225342]
	},
	{
		"bufferView":1,
		"type":"VEC2",
		"componentType":5126,
		"count":18293,
		"byteOffset":24,
		"min":[0.00009000000136438757,
		0.000048000001697801056],
		"max":[0.9998319745063782,
		0.9999939203262329]
	}],
	"bufferViews":[{
		"buffer":0,
		"byteOffset":0,
		"byteLength":149988,
		"target":34963
	},
	{
		"buffer":0,
		"byteOffset":149988,
		"byteLength":585376,
		"byteStride":32,
		"target":34962
	}],
	"buffers":[{
		"uri":"data:application/octet-stream;base64,",
		"byteLength":735364
	}],
	"samplers":[{
		"magFilter":9729,
		"minFilter":9729,
		"wrapS":10497,
		"wrapT":10497
	}],
	"textures":[{
		"sampler":0,
		"source":0
	}],
	"materials":[{
		"pbrMetallicRoughness":{
			"baseColorTexture":{
				"index":0
			},
			"baseColorFactor":[1.0,
			1.0,
			1.0,
			1.0],
			"metallicFactor":1.0,
			"roughnessFactor":1.0
		},
		"emissiveFactor":[0.0,
		0.0,
		0.0],
		"alphaMode":"OPAQUE",
		"name":"textured_0",
		"doubleSided":false
	}]
}