{
	"images":[{
		"uri":"data:image/jpeg;base64,"
	}],
	"asset":{
		"version":"2.0",
		"generator":""
	},
	"scenes":[{
		"nodes":[0]
	}],
	"nodes":[{
		"name":"Default",
		"mesh":0
	}],
	"meshes":[{
		"name":"Default",
		"primitives":[{
			"attributes":{
				"NORMAL":2,
				"POSITION":1,
				"TEXCOORD_0":3
			},
			"indices":0,
			"material":0
		}]
	}],
	"accessors":[{
		"bufferView":0,
		"type":"SCALAR",
		"componentType":5123,
		"count":63471,
		"byteOffset":0,
		"min":[0],
		"max":[17499]
	},
	{
		"bufferView":1,
		"type":"VEC3",
		"componentType":5126,
		"count":17500,
		"byteOffset":0,
		"min":[-0.0007852999842725694,
		0.0,
		-0.0009822000283747912],
		"max":[0.0007672900101169944,
		0.0007606400176882744,
		0.001026810030452907]
	},
	{
		"bufferView":1,
		"type":"VEC3",
		"componentType":5126,
		"count":17500,
		"byteOffset":12,
		"min":[-0.9997941255569458,
		-0.9986346364021301,
		-0.999926745891571],
		"max":[0.9992384314537048,
		0.9999995231628418,
		0.9999592900276184]
	},
	{
		"bufferView":1,
		"type":"VEC2",
		"componentType":5126,
		"count":17500,
		"byteOffset":24,
		"min":[0.000015999999959603885,
		0.000045000000682193789],
		"max":[0.9994739890098572,
		0.999951958656311]
	}],
	"bufferViews":[{
		"buffer":0,
		"byteOffset":0,
		"byteLength":126942,
		"target":34963
	},
	{
		"buffer":0,
		"byteOffset":126944,
		"byteLength":560000,
		"byteStride":32,
		"target":34962
	}],
	"buffers":[{
		"uri":"data:application/octet-stream;base64,",
		"byteLength":686944
	}],
	"samplers":[{
		"magFilter":9729,
		"minFilter":9729,
		"wrapS":10497,
		"wrapT":10497
	}],
	"textures":[{
		"sampler":0,
		"source":0
	}],
	"materials":[{
		"pbrMetallicRoughness":{
			"baseColorTexture":{
				"index":0
			},
			"baseColorFactor":[1.0,
			1.0,
			1.0,
			1.0],
			"metallicFactor":1.0,
			"roughnessFactor":1.0
		},
		"emissiveFactor":[0.0,
		0.0,
		0.0],
		"alphaMode":"OPAQUE",
		"name":"textured_0",
		"doubleSided":false
	}]
}