{
	"images":[{
		"uri":"data:image/jpeg;base64,"
	}],
	"asset":{
		"version":"2.0",
		"generator":""
	},
	"scenes":[{
		"nodes":[0]
	}],
	"nodes":[{
		"name":"Default",
		"mesh":0
	}],
	"meshes":[{
		"name":"Default",
		"primitives":[{
			"attributes":{
				"NORMAL":2,
				"POSITION":1,
				"TEXCOORD_0":3
			},
			"indices":0,
			"material":0
		}]
	}],
	"accessors":[{
		"bufferView":0,
		"type":"SCALAR",
		"componentType":5123,
		"count":74985,
		"byteOffset":0,
		"min":[0],
		"max":[14818]
	},
	{
		"bufferView":1,
		"type":"VEC3",
		"componentType":5126,
		"count":14819,
		"byteOffset":0,
		"min":[-0.0015880099963396788,
		0.0,
		-0.0022409199737012388],
		"max":[0.0018201899947598577,
		0.0023480199743062259,
		0.003026969963684678]
	},
	{
		"bufferView":1,
		"type":"VEC3",
		"componentType":5126,
		"count":14819,
		"byteOffset":12,
		"min":[-0.9998092651367188,
		-0.9996640086174011,
		-0.9999828338623047],
		"max":[0.9994834065437317,
		0.9999992847442627,
		0.9998331069946289]
	},
	{
		"bufferView":1,
		"type":"VEC2",
		"componentType":5126,
		"count":14819,
		"byteOffset":24,
		"min":[0.0000019999999949504856,
		0.00009899999713525176],
		"max":[0.9957659840583801,
		0.9998339414596558]
	}],
	"bufferViews":[{
		"buffer":0,
		"byteOffset":0,
		"byteLength":149970,
		"target":34963
	},
	{
		"buffer":0,
		"byteOffset":149972,
		"byteLength":474208,
		"byteStride":32,
		"target":34962
	}],
	"buffers":[{
		"uri":"data:application/octet-stream;base64,",
		"byteLength":624180
	}],
	"samplers":[{
		"magFilter":9729,
		"minFilter":9729,
		"wrapS":10497,
		"wrapT":10497
	}],
	"textures":[{
		"sampler":0,
		"source":0
	}],
	"materials":[{
		"pbrMetallicRoughness":{
			"baseColorTexture":{
				"index":0
			},
			"baseColorFactor":[1.0,
			1.0,
			1.0,
			1.0],
			"metallicFactor":1.0,
			"roughnessFactor":1.0
		},
		"emissiveFactor":[0.0,
		0.0,
		0.0],
		"alphaMode":"OPAQUE",
		"name":"textured_0",
		"doubleSided":false
	}]
}