{
	"images":[{
		"uri":"data:image/jpeg;base64,"
	}],
	"asset":{
		"version":"2.0",
		"generator":""
	},
	"scenes":[{
		"nodes":[0]
	}],
	"nodes":[{
		"name":"Default",
		"mesh":0
	}],
	"meshes":[{
		"name":"Default",
		"primitives":[{
			"attributes":{
				"NORMAL":2,
				"POSITION":1,
				"TEXCOORD_0":3
			},
			"indices":0,
			"material":0
		}]
	}],
	"accessors":[{
		"bufferView":0,
		"type":"SCALAR",
		"componentType":5123,
		"count":74991,
		"byteOffset":0,
		"min":[0],
		"max":[15691]
	},
	{
		"bufferView":1,
		"type":"VEC3",
		"componentType":5126,
		"count":15692,
		"byteOffset":0,
		"min":[-0.0018475899705663324,
		0.0,
		-0.0023794600274413826],
		"max":[0.004691829904913902,
		0.0025520799681544306,
		0.0031059898901730777]
	},
	{
		"bufferView":1,
		"type":"VEC3",
		"componentType":5126,
		"count":15692,
		"byteOffset":12,
		"min":[-0.9995753765106201,
		-0.9995035529136658,
		-0.9997828006744385],
		"max":[0.9993801116943359,
		0.9999799728393555,
		0.9999181628227234]
	},
	{
		"bufferView":1,
		"type":"VEC2",
		"componentType":5126,
		"count":15692,
		"byteOffset":24,
		"min":[0.000007000000096013537,
		0.00840899907052517],
		"max":[0.999970018863678,
		0.9999369382858276]
	}],
	"bufferViews":[{
		"buffer":0,
		"byteOffset":0,
		"byteLength":149982,
		"target":34963
	},
	{
		"buffer":0,
		"byteOffset":149984,
		"byteLength":502144,
		"byteStride":32,
		"target":34962
	}],
	"buffers":[{
		"uri":"data:application/octet-stream;base64,",
		"byteLength":652128
	}],
	"samplers":[{
		"magFilter":9729,
		"minFilter":9729,
		"wrapS":10497,
		"wrapT":10497
	}],
	"textures":[{
		"sampler":0,
		"source":0
	}],
	"materials":[{
		"pbrMetallicRoughness":{
			"baseColorTexture":{
				"index":0
			},
			"baseColorFactor":[1.0,
			1.0,
			1.0,
			1.0],
			"metallicFactor":1.0,
			"roughnessFactor":1.0
		},
		"emissiveFactor":[0.0,
		0.0,
		0.0],
		"alphaMode":"OPAQUE",
		"name":"textured_0",
		"doubleSided":false
	}]
}