{
	"images":[{
		"uri":"data:image/jpeg;base64,"
	}],
	"asset":{
		"version":"2.0",
		"generator":""
	},
	"scenes":[{
		"nodes":[0]
	}],
	"nodes":[{
		"name":"Default",
		"mesh":0
	}],
	"meshes":[{
		"name":"Default",
		"primitives":[{
			"attributes":{
				"NORMAL":2,
				"POSITION":1,
				"TEXCOORD_0":3
			},
			"indices":0,
			"material":0
		}]
	}],
	"accessors":[{
		"bufferView":0,
		"type":"SCALAR",
		"componentType":5123,
		"count":67236,
		"byteOffset":0,
		"min":[0],
		"max":[19421]
	},
	{
		"bufferView":1,
		"type":"VEC3",
		"componentType":5126,
		"count":19422,
		"byteOffset":0,
		"min":[-0.0006217500194907188,
		0.0,
		-0.0008573600207455456],
		"max":[0.0005546599859371781,
		0.0010922099463641644,
		0.0008029399905353785]
	},
	{
		"bufferView":1,
		"type":"VEC3",
		"componentType":5126,
		"count":19422,
		"byteOffset":12,
		"min":[-0.9997140765190125,
		-0.9995437860488892,
		-0.9999565482139587],
		"max":[0.9998978972434998,
		0.9999411702156067,
		0.9997769594192505]
	},
	{
		"bufferView":1,
		"type":"VEC2",
		"componentType":5126,
		"count":19422,
		"byteOffset":24,
		"min":[0.00024300000222865492,
		0.00013800000306218863],
		"max":[0.999468982219696,
		0.999904990196228]
	}],
	"bufferViews":[{
		"buffer":0,
		"byteOffset":0,
		"byteLength":134472,
		"target":34963
	},
	{
		"buffer":0,
		"byteOffset":134472,
		"byteLength":621504,
		"byteStride":32,
		"target":34962
	}],
	"buffers":[{
		"uri":"data:application/octet-stream;base64,",
		"byteLength":755976
	}],
	"samplers":[{
		"magFilter":9729,
		"minFilter":9729,
		"wrapS":10497,
		"wrapT":10497
	}],
	"textures":[{
		"sampler":0,
		"source":0
	}],
	"materials":[{
		"pbrMetallicRoughness":{
			"baseColorTexture":{
				"index":0
			},
			"baseColorFactor":[1.0,
			1.0,
			1.0,
			1.0],
			"metallicFactor":1.0,
			"roughnessFactor":1.0
		},
		"emissiveFactor":[0.0,
		0.0,
		0.0],
		"alphaMode":"OPAQUE",
		"name":"textured_0",
		"doubleSided":false
	}]
}