{
	"images":[{
		"uri":"data:image/jpeg;base64,"
	}],
	"asset":{
		"version":"2.0",
		"generator":""
	},
	"scenes":[{
		"nodes":[0]
	}],
	"nodes":[{
		"name":"Default",
		"mesh":0
	}],
	"meshes":[{
		"name":"Default",
		"primitives":[{
			"attributes":{
				"NORMAL":2,
				"POSITION":1,
				"TEXCOORD_0":3
			},
			"indices":0,
			"material":0
		}]
	}],
	"accessors":[{
		"bufferView":0,
		"type":"SCALAR",
		"componentType":5123,
		"count":74973,
		"byteOffset":0,
		"min":[0],
		"max":[21138]
	},
	{
		"bufferView":1,
		"type":"VEC3",
		"componentType":5126,
		"count":21139,
		"byteOffset":0,
		"min":[-0.0023876801133155824,
		0.0,
		-0.005233230069279671],
		"max":[0.002441330114379525,
		0.006488120183348656,
		0.005923040211200714]
	},
	{
		"bufferView":1,
		"type":"VEC3",
		"componentType":5126,
		"count":21139,
		"byteOffset":12,
		"min":[-0.999984622001648,
		-0.9998083114624023,
		-0.9999992847442627],
		"max":[0.9999748468399048,
		0.9999872446060181,
		0.9999980926513672]
	},
	{
		"bufferView":1,
		"type":"VEC2",
		"componentType":5126,
		"count":21139,
		"byteOffset":24,
		"min":[0.00011700000322889537,
		0.0040699997916817669],
		"max":[0.999970018863678,
		0.9999799728393555]
	}],
	"bufferViews":[{
		"buffer":0,
		"byteOffset":0,
		"byteLength":149946,
		"target":34963
	},
	{
		"buffer":0,
		"byteOffset":149948,
		"byteLength":676448,
		"byteStride":32,
		"target":34962
	}],
	"buffers":[{
		"uri":"data:application/octet-stream;base64,",
		"byteLength":826396
	}],
	"samplers":[{
		"magFilter":9729,
		"minFilter":9729,
		"wrapS":10497,
		"wrapT":10497
	}],
	"textures":[{
		"sampler":0,
		"source":0
	}],
	"materials":[{
		"pbrMetallicRoughness":{
			"baseColorTexture":{
				"index":0
			},
			"baseColorFactor":[1.0,
			1.0,
			1.0,
			1.0],
			"metallicFactor":1.0,
			"roughnessFactor":1.0
		},
		"emissiveFactor":[0.0,
		0.0,
		0.0],
		"alphaMode":"OPAQUE",
		"name":"textured_0",
		"doubleSided":false
	}]
}