{
	"images":[{
		"uri":"data:image/jpeg;base64,"
	}],
	"asset":{
		"version":"2.0",
		"generator":""
	},
	"scenes":[{
		"nodes":[0]
	}],
	"nodes":[{
		"name":"Default",
		"mesh":0
	}],
	"meshes":[{
		"name":"Default",
		"primitives":[{
			"attributes":{
				"NORMAL":2,
				"POSITION":1,
				"TEXCOORD_0":3
			},
			"indices":0,
			"material":0
		}]
	}],
	"accessors":[{
		"bufferView":0,
		"type":"SCALAR",
		"componentType":5123,
		"count":71115,
		"byteOffset":0,
		"min":[0],
		"max":[19961]
	},
	{
		"bufferView":1,
		"type":"VEC3",
		"componentType":5126,
		"count":19962,
		"byteOffset":0,
		"min":[-0.0005437299842014909,
		-0.00045640001189894974,
		-0.001768199959769845],
		"max":[0.0005437299842014909,
		0.00045640001189894974,
		0.001768199959769845]
	},
	{
		"bufferView":1,
		"type":"VEC3",
		"componentType":5126,
		"count":19962,
		"byteOffset":12,
		"min":[-0.9999929666519165,
		-0.9996801018714905,
		-0.9999585747718811],
		"max":[0.9999889135360718,
		0.9999825954437256,
		0.9998591542243958]
	},
	{
		"bufferView":1,
		"type":"VEC2",
		"componentType":5126,
		"count":19962,
		"byteOffset":24,
		"min":[0.000019999999494757504,
		0.004153000190854073],
		"max":[0.9998999834060669,
		0.9999169111251831]
	}],
	"bufferViews":[{
		"buffer":0,
		"byteOffset":0,
		"byteLength":142230,
		"target":34963
	},
	{
		"buffer":0,
		"byteOffset":142232,
		"byteLength":638784,
		"byteStride":32,
		"target":34962
	}],
	"buffers":[{
		"uri":"data:application/octet-stream;base64,",
		"byteLength":781016
	}],
	"samplers":[{
		"magFilter":9729,
		"minFilter":9729,
		"wrapS":10497,
		"wrapT":10497
	}],
	"textures":[{
		"sampler":0,
		"source":0
	}],
	"materials":[{
		"pbrMetallicRoughness":{
			"baseColorTexture":{
				"index":0
			},
			"baseColorFactor":[1.0,
			1.0,
			1.0,
			1.0],
			"metallicFactor":1.0,
			"roughnessFactor":1.0
		},
		"emissiveFactor":[0.0,
		0.0,
		0.0],
		"alphaMode":"OPAQUE",
		"name":"textured_0",
		"doubleSided":false
	}]
}