{
	"images":[{
		"uri":"data:image/jpeg;base64,"
	}],
	"asset":{
		"version":"2.0",
		"generator":""
	},
	"scenes":[{
		"nodes":[0]
	}],
	"nodes":[{
		"name":"Default",
		"mesh":0
	}],
	"meshes":[{
		"name":"Default",
		"primitives":[{
			"attributes":{
				"NORMAL":2,
				"POSITION":1,
				"TEXCOORD_0":3
			},
			"indices":0,
			"material":0
		}]
	}],
	"accessors":[{
		"bufferView":0,
		"type":"SCALAR",
		"componentType":5123,
		"count":74991,
		"byteOffset":0,
		"min":[0],
		"max":[16807]
	},
	{
		"bufferView":1,
		"type":"VEC3",
		"componentType":5126,
		"count":16808,
		"byteOffset":0,
		"min":[-0.0033817801158875229,
		0.0,
		-0.004808819852769375],
		"max":[0.002763899974524975,
		0.006544089876115322,
		0.003902429947629571]
	},
	{
		"bufferView":1,
		"type":"VEC3",
		"componentType":5126,
		"count":16808,
		"byteOffset":12,
		"min":[-0.9999468922615051,
		-0.9987184405326843,
		-0.9999269843101502],
		"max":[0.9994750618934631,
		0.9999912977218628,
		0.9999060034751892]
	},
	{
		"bufferView":1,
		"type":"VEC2",
		"componentType":5126,
		"count":16808,
		"byteOffset":24,
		"min":[0.000018999999156221749,
		0.00002300000051036477],
		"max":[0.9967849850654602,
		0.9999480247497559]
	}],
	"bufferViews":[{
		"buffer":0,
		"byteOffset":0,
		"byteLength":149982,
		"target":34963
	},
	{
		"buffer":0,
		"byteOffset":149984,
		"byteLength":537856,
		"byteStride":32,
		"target":34962
	}],
	"buffers":[{
		"uri":"data:application/octet-stream;base64,",
		"byteLength":687840
	}],
	"samplers":[{
		"magFilter":9729,
		"minFilter":9729,
		"wrapS":10497,
		"wrapT":10497
	}],
	"textures":[{
		"sampler":0,
		"source":0
	}],
	"materials":[{
		"pbrMetallicRoughness":{
			"baseColorTexture":{
				"index":0
			},
			"baseColorFactor":[1.0,
			1.0,
			1.0,
			1.0],
			"metallicFactor":1.0,
			"roughnessFactor":1.0
		},
		"emissiveFactor":[0.0,
		0.0,
		0.0],
		"alphaMode":"OPAQUE",
		"name":"textured_0",
		"doubleSided":false
	}]
}