{
	"images":[{
		"uri":"data:image/jpeg;base64,"
	}],
	"asset":{
		"version":"2.0",
		"generator":""
	},
	"scenes":[{
		"nodes":[0]
	}],
	"nodes":[{
		"name":"Default",
		"mesh":0
	}],
	"meshes":[{
		"name":"Default",
		"primitives":[{
			"attributes":{
				"NORMAL":2,
				"POSITION":1,
				"TEXCOORD_0":3
			},
			"indices":0,
			"material":0
		}]
	}],
	"accessors":[{
		"bufferView":0,
		"type":"SCALAR",
		"componentType":5123,
		"count":74991,
		"byteOffset":0,
		"min":[0],
		"max":[21209]
	},
	{
		"bufferView":1,
		"type":"VEC3",
		"componentType":5126,
		"count":21210,
		"byteOffset":0,
		"min":[-0.002588320057839155,
		0.0,
		-0.0033851598855108024],
		"max":[0.002915410092100501,
		0.010694320313632489,
		0.0033399900421500208]
	},
	{
		"bufferView":1,
		"type":"VEC3",
		"componentType":5126,
		"count":21210,
		"byteOffset":12,
		"min":[-0.9999675154685974,
		-0.9996559023857117,
		-0.9999205470085144],
		"max":[0.999802827835083,
		0.9999731779098511,
		0.9999833106994629]
	},
	{
		"bufferView":1,
		"type":"VEC2",
		"componentType":5126,
		"count":21210,
		"byteOffset":24,
		"min":[9.999999974752428e-7,
		0.0015950000379234553],
		"max":[0.999925971031189,
		0.999925971031189]
	}],
	"bufferViews":[{
		"buffer":0,
		"byteOffset":0,
		"byteLength":149982,
		"target":34963
	},
	{
		"buffer":0,
		"byteOffset":149984,
		"byteLength":678720,
		"byteStride":32,
		"target":34962
	}],
	"buffers":[{
		"uri":"data:application/octet-stream;base64,",
		"byteLength":828704
	}],
	"samplers":[{
		"magFilter":9729,
		"minFilter":9729,
		"wrapS":10497,
		"wrapT":10497
	}],
	"textures":[{
		"sampler":0,
		"source":0
	}],
	"materials":[{
		"pbrMetallicRoughness":{
			"baseColorTexture":{
				"index":0
			},
			"baseColorFactor":[1.0,
			1.0,
			1.0,
			1.0],
			"metallicFactor":1.0,
			"roughnessFactor":1.0
		},
		"emissiveFactor":[0.0,
		0.0,
		0.0],
		"alphaMode":"OPAQUE",
		"name":"textured_0",
		"doubleSided":false
	}]
}