{
	"images":[{
		"uri":"data:image/jpeg;base64,"
	}],
	"asset":{
		"version":"2.0",
		"generator":""
	},
	"scenes":[{
		"nodes":[0]
	}],
	"nodes":[{
		"name":"Default",
		"mesh":0
	}],
	"meshes":[{
		"name":"Default",
		"primitives":[{
			"attributes":{
				"NORMAL":2,
				"POSITION":1,
				"TEXCOORD_0":3
			},
			"indices":0,
			"material":0
		}]
	}],
	"accessors":[{
		"bufferView":0,
		"type":"SCALAR",
		"componentType":5123,
		"count":75000,
		"byteOffset":0,
		"min":[0],
		"max":[15896]
	},
	{
		"bufferView":1,
		"type":"VEC3",
		"componentType":5126,
		"count":15897,
		"byteOffset":0,
		"min":[-0.003743930021300912,
		0.0,
		-0.0032749599777162077],
		"max":[0.0036787099670618774,
		0.014905000105500222,
		0.002391289919614792]
	},
	{
		"bufferView":1,
		"type":"VEC3",
		"componentType":5126,
		"count":15897,
		"byteOffset":12,
		"min":[-0.9999896287918091,
		-0.9999880790710449,
		-0.9998908638954163],
		"max":[0.9999997615814209,
		0.9999895095825195,
		0.9999878406524658]
	},
	{
		"bufferView":1,
		"type":"VEC2",
		"componentType":5126,
		"count":15897,
		"byteOffset":24,
		"min":[0.00005999999848427251,
		0.00006299999949987978],
		"max":[0.9760680198669434,
		0.9999920129776001]
	}],
	"bufferViews":[{
		"buffer":0,
		"byteOffset":0,
		"byteLength":150000,
		"target":34963
	},
	{
		"buffer":0,
		"byteOffset":150000,
		"byteLength":508704,
		"byteStride":32,
		"target":34962
	}],
	"buffers":[{
		"uri":"data:application/octet-stream;base64,",
		"byteLength":658704
	}],
	"samplers":[{
		"magFilter":9729,
		"minFilter":9729,
		"wrapS":10497,
		"wrapT":10497
	}],
	"textures":[{
		"sampler":0,
		"source":0
	}],
	"materials":[{
		"pbrMetallicRoughness":{
			"baseColorTexture":{
				"index":0
			},
			"baseColorFactor":[1.0,
			1.0,
			1.0,
			1.0],
			"metallicFactor":1.0,
			"roughnessFactor":1.0
		},
		"emissiveFactor":[0.0,
		0.0,
		0.0],
		"alphaMode":"OPAQUE",
		"name":"textured_0",
		"doubleSided":false
	}]
}