{
	"images":[{
		"uri":"data:image/jpeg;base64,"
	}],
	"asset":{
		"version":"2.0",
		"generator":""
	},
	"scenes":[{
		"nodes":[0]
	}],
	"nodes":[{
		"name":"Default",
		"mesh":0,
		"translation":[0.0,
		0.0015307359863072634,
		0.0],
		"rotation":[0.0,
		0.0,
		0.0,
		-1.0],
		"scale":[1.0,
		1.0,
		1.0]
	}],
	"meshes":[{
		"name":"Default",
		"primitives":[{
			"attributes":{
				"NORMAL":2,
				"POSITION":1,
				"TEXCOORD_0":3
			},
			"indices":0,
			"material":0
		}]
	}],
	"accessors":[{
		"bufferView":0,
		"type":"SCALAR",
		"componentType":5123,
		"count":74457,
		"byteOffset":0,
		"min":[0],
		"max":[17102]
	},
	{
		"bufferView":1,
		"type":"VEC3",
		"componentType":5126,
		"count":17103,
		"byteOffset":0,
		"min":[-0.0011225549969822169,
		-0.0015811549965292216,
		-0.0013464150251820684],
		"max":[0.0011225549969822169,
		0.0015811549965292216,
		0.0013464150251820684]
	},
	{
		"bufferView":1,
		"type":"VEC3",
		"componentType":5126,
		"count":17103,
		"byteOffset":12,
		"min":[-0.999992847442627,
		-0.9995269179344177,
		-0.9999899864196777],
		"max":[0.9997774362564087,
		0.9999984502792358,
		0.9996215105056763]
	},
	{
		"bufferView":1,
		"type":"VEC2",
		"componentType":5126,
		"count":17103,
		"byteOffset":24,
		"min":[9.999999974752428e-7,
		0.000012999998943996616],
		"max":[0.9978529810905457,
		0.9999059438705444]
	}],
	"bufferViews":[{
		"buffer":0,
		"byteOffset":0,
		"byteLength":148914,
		"target":34963
	},
	{
		"buffer":0,
		"byteOffset":148916,
		"byteLength":547296,
		"byteStride":32,
		"target":34962
	}],
	"buffers":[{
		"uri":"data:application/octet-stream;base64,",
		"byteLength":696212
	}],
	"samplers":[{
		"magFilter":9729,
		"minFilter":9729,
		"wrapS":10497,
		"wrapT":10497
	}],
	"textures":[{
		"sampler":0,
		"source":0
	}],
	"materials":[{
		"pbrMetallicRoughness":{
			"baseColorTexture":{
				"index":0
			},
			"baseColorFactor":[1.0,
			1.0,
			1.0,
			1.0],
			"metallicFactor":1.0,
			"roughnessFactor":1.0
		},
		"emissiveFactor":[0.0,
		0.0,
		0.0],
		"alphaMode":"OPAQUE",
		"name":"textured_0",
		"doubleSided":false
	}]
}