{
	"images":[{
		"uri":"data:image/jpeg;base64,"
	}],
	"asset":{
		"version":"2.0",
		"generator":""
	},
	"scenes":[{
		"nodes":[0]
	}],
	"nodes":[{
		"name":"Default",
		"mesh":0
	}],
	"meshes":[{
		"name":"Default",
		"primitives":[{
			"attributes":{
				"NORMAL":2,
				"POSITION":1,
				"TEXCOORD_0":3
			},
			"indices":0,
			"material":0
		}]
	}],
	"accessors":[{
		"bufferView":0,
		"type":"SCALAR",
		"componentType":5123,
		"count":74982,
		"byteOffset":0,
		"min":[0],
		"max":[14594]
	},
	{
		"bufferView":1,
		"type":"VEC3",
		"componentType":5126,
		"count":14595,
		"byteOffset":0,
		"min":[-0.0017404999816790224,
		0.0,
		-0.0015571500407531858],
		"max":[0.0020603800658136608,
		0.007752339821308851,
		0.0021483399905264379]
	},
	{
		"bufferView":1,
		"type":"VEC3",
		"componentType":5126,
		"count":14595,
		"byteOffset":12,
		"min":[-0.9999009966850281,
		-0.9988099336624146,
		-0.999996542930603],
		"max":[0.9996693730354309,
		0.9999891519546509,
		0.9999728202819824]
	},
	{
		"bufferView":1,
		"type":"VEC2",
		"componentType":5126,
		"count":14595,
		"byteOffset":24,
		"min":[0.00011800000356743112,
		0.0005840000230818987],
		"max":[0.999908983707428,
		0.9998090267181397]
	}],
	"bufferViews":[{
		"buffer":0,
		"byteOffset":0,
		"byteLength":149964,
		"target":34963
	},
	{
		"buffer":0,
		"byteOffset":149964,
		"byteLength":467040,
		"byteStride":32,
		"target":34962
	}],
	"buffers":[{
		"uri":"data:application/octet-stream;base64,",
		"byteLength":617004
	}],
	"samplers":[{
		"magFilter":9729,
		"minFilter":9729,
		"wrapS":10497,
		"wrapT":10497
	}],
	"textures":[{
		"sampler":0,
		"source":0
	}],
	"materials":[{
		"pbrMetallicRoughness":{
			"baseColorTexture":{
				"index":0
			},
			"baseColorFactor":[1.0,
			1.0,
			1.0,
			1.0],
			"metallicFactor":1.0,
			"roughnessFactor":1.0
		},
		"emissiveFactor":[0.0,
		0.0,
		0.0],
		"alphaMode":"OPAQUE",
		"name":"textured_0",
		"doubleSided":false
	}]
}