{
	"images":[{
		"uri":"data:image/jpeg;base64,"
	}],
	"asset":{
		"version":"2.0",
		"generator":""
	},
	"scenes":[{
		"nodes":[0]
	}],
	"nodes":[{
		"name":"Default",
		"mesh":0
	}],
	"meshes":[{
		"name":"Default",
		"primitives":[{
			"attributes":{
				"NORMAL":2,
				"POSITION":1,
				"TEXCOORD_0":3
			},
			"indices":0,
			"material":0
		}]
	}],
	"accessors":[{
		"bufferView":0,
		"type":"SCALAR",
		"componentType":5123,
		"count":74997,
		"byteOffset":0,
		"min":[0],
		"max":[19322]
	},
	{
		"bufferView":1,
		"type":"VEC3",
		"componentType":5126,
		"count":19323,
		"byteOffset":0,
		"min":[-0.002661010017618537,
		0.0,
		-0.005265669897198677],
		"max":[0.0029280500020831825,
		0.005020270124077797,
		0.005274409893900156]
	},
	{
		"bufferView":1,
		"type":"VEC3",
		"componentType":5126,
		"count":19323,
		"byteOffset":12,
		"min":[-0.9999328255653381,
		-0.9998803734779358,
		-0.9999658465385437],
		"max":[0.9999908208847046,
		0.9999924898147583,
		0.999955952167511]
	},
	{
		"bufferView":1,
		"type":"VEC2",
		"componentType":5126,
		"count":19323,
		"byteOffset":24,
		"min":[0.000012000000424450264,
		0.00018199998885393143],
		"max":[0.9988899827003479,
		0.9999690055847168]
	}],
	"bufferViews":[{
		"buffer":0,
		"byteOffset":0,
		"byteLength":149994,
		"target":34963
	},
	{
		"buffer":0,
		"byteOffset":149996,
		"byteLength":618336,
		"byteStride":32,
		"target":34962
	}],
	"buffers":[{
		"uri":"data:application/octet-stream;base64,",
		"byteLength":768332
	}],
	"samplers":[{
		"magFilter":9729,
		"minFilter":9729,
		"wrapS":10497,
		"wrapT":10497
	}],
	"textures":[{
		"sampler":0,
		"source":0
	}],
	"materials":[{
		"pbrMetallicRoughness":{
			"baseColorTexture":{
				"index":0
			},
			"baseColorFactor":[1.0,
			1.0,
			1.0,
			1.0],
			"metallicFactor":1.0,
			"roughnessFactor":1.0
		},
		"emissiveFactor":[0.0,
		0.0,
		0.0],
		"alphaMode":"OPAQUE",
		"name":"textured_0",
		"doubleSided":false
	}]
}