{
	"images":[{
		"uri":"data:image/jpeg;base64,"
	}],
	"asset":{
		"version":"2.0",
		"generator":""
	},
	"scenes":[{
		"nodes":[0]
	}],
	"nodes":[{
		"name":"Default",
		"mesh":0
	}],
	"meshes":[{
		"name":"Default",
		"primitives":[{
			"attributes":{
				"NORMAL":2,
				"POSITION":1,
				"TEXCOORD_0":3
			},
			"indices":0,
			"material":0
		}]
	}],
	"accessors":[{
		"bufferView":0,
		"type":"SCALAR",
		"componentType":5123,
		"count":74958,
		"byteOffset":0,
		"min":[0],
		"max":[16899]
	},
	{
		"bufferView":1,
		"type":"VEC3",
		"componentType":5126,
		"count":16900,
		"byteOffset":0,
		"min":[-0.0028724800795316698,
		0.0,
		-0.0031890699174255134],
		"max":[0.002883180044591427,
		0.002300129970535636,
		0.0035853299777954818]
	},
	{
		"bufferView":1,
		"type":"VEC3",
		"componentType":5126,
		"count":16900,
		"byteOffset":12,
		"min":[-0.999768853187561,
		-0.9986951351165772,
		-0.9999268651008606],
		"max":[0.9992770552635193,
		0.999998927116394,
		0.9997986555099487]
	},
	{
		"bufferView":1,
		"type":"VEC2",
		"componentType":5126,
		"count":16900,
		"byteOffset":24,
		"min":[0.0002479999966453761,
		0.000029999999242136256],
		"max":[0.9999610185623169,
		0.9999929666519165]
	}],
	"bufferViews":[{
		"buffer":0,
		"byteOffset":0,
		"byteLength":149916,
		"target":34963
	},
	{
		"buffer":0,
		"byteOffset":149916,
		"byteLength":540800,
		"byteStride":32,
		"target":34962
	}],
	"buffers":[{
		"uri":"data:application/octet-stream;base64,",
		"byteLength":690716
	}],
	"samplers":[{
		"magFilter":9729,
		"minFilter":9729,
		"wrapS":10497,
		"wrapT":10497
	}],
	"textures":[{
		"sampler":0,
		"source":0
	}],
	"materials":[{
		"pbrMetallicRoughness":{
			"baseColorTexture":{
				"index":0
			},
			"baseColorFactor":[1.0,
			1.0,
			1.0,
			1.0],
			"metallicFactor":1.0,
			"roughnessFactor":1.0
		},
		"emissiveFactor":[0.0,
		0.0,
		0.0],
		"alphaMode":"OPAQUE",
		"name":"textured_0",
		"doubleSided":false
	}]
}