{
	"images":[{
		"uri":"data:image/jpeg;base64,"
	}],
	"asset":{
		"version":"2.0",
		"generator":""
	},
	"scenes":[{
		"nodes":[0]
	}],
	"nodes":[{
		"name":"Default",
		"mesh":0
	}],
	"meshes":[{
		"name":"Default",
		"primitives":[{
			"attributes":{
				"NORMAL":2,
				"POSITION":1,
				"TEXCOORD_0":3
			},
			"indices":0,
			"material":0
		}]
	}],
	"accessors":[{
		"bufferView":0,
		"type":"SCALAR",
		"componentType":5123,
		"count":74967,
		"byteOffset":0,
		"min":[0],
		"max":[18852]
	},
	{
		"bufferView":1,
		"type":"VEC3",
		"componentType":5126,
		"count":18853,
		"byteOffset":0,
		"min":[-0.011112900450825692,
		0.0,
		-0.012273469939827919],
		"max":[0.006346269976347685,
		0.011928560212254525,
		0.006152130197733641]
	},
	{
		"bufferView":1,
		"type":"VEC3",
		"componentType":5126,
		"count":18853,
		"byteOffset":12,
		"min":[-0.9999986886978149,
		-0.9999584555625916,
		-0.9999878406524658],
		"max":[0.9946810603141785,
		0.9999955892562866,
		0.9997967481613159]
	},
	{
		"bufferView":1,
		"type":"VEC2",
		"componentType":5126,
		"count":18853,
		"byteOffset":24,
		"min":[0.00012599999899975955,
		0.00011500000255182385],
		"max":[0.9994590282440186,
		0.9999849796295166]
	}],
	"bufferViews":[{
		"buffer":0,
		"byteOffset":0,
		"byteLength":149934,
		"target":34963
	},
	{
		"buffer":0,
		"byteOffset":149936,
		"byteLength":603296,
		"byteStride":32,
		"target":34962
	}],
	"buffers":[{
		"uri":"data:application/octet-stream;base64,",
		"byteLength":753232
	}],
	"samplers":[{
		"magFilter":9729,
		"minFilter":9729,
		"wrapS":10497,
		"wrapT":10497
	}],
	"textures":[{
		"sampler":0,
		"source":0
	}],
	"materials":[{
		"pbrMetallicRoughness":{
			"baseColorTexture":{
				"index":0
			},
			"baseColorFactor":[1.0,
			1.0,
			1.0,
			1.0],
			"metallicFactor":1.0,
			"roughnessFactor":1.0
		},
		"emissiveFactor":[0.0,
		0.0,
		0.0],
		"alphaMode":"OPAQUE",
		"name":"textured_0",
		"doubleSided":false
	}]
}